<svg xmlns="http://www.w3.org/2000/svg" viewBox="0 0 60.31 21"><defs><style>.cls-1{fill:#4a62ac;}.cls-2{isolation:isolate;font-size:11.85px;font-family:Helvetica-Bold, Helvetica;font-weight:700;}.cls-2,.cls-3{fill:#fff;}</style></defs><g id="Layer_2" data-name="Layer 2"><g id="Layer_1-2" data-name="Layer 1"><g id="Layer_2-2" data-name="Layer 2"><g id="pages"><line class="cls-1" x1="60.31" x2="60.31" y2="21"/><polyline class="cls-1" points="60.31 21 0 21 0 0 60.31 0"/><text class="cls-2" transform="translate(21.54 14.8)">Share</text><path class="cls-3" d="M17.5,14.75a2.77,2.77,0,0,1-2.75,2.75H12.92V11.74h1.94l.27-2.1H12.92V8.29a1.32,1.32,0,0,1,.27-.79,1.31,1.31,0,0,1,.92-.26h1.24v-2c-.6,0-1.19-.1-1.73-.1a2.75,2.75,0,0,0-2,.75A2.76,2.76,0,0,0,10.86,8V9.6H8.72v2.1h2.1v5.8H5.65a2.38,2.38,0,0,1-1.88-.76,2.65,2.65,0,0,1-.77-2v-9a2.64,2.64,0,0,1,.81-1.94A2.64,2.64,0,0,1,5.75,3h9.1a2.58,2.58,0,0,1,1.88.81,2.64,2.64,0,0,1,.81,1.94v9Z"/></g></g></g></g></svg>