<svg xmlns="http://www.w3.org/2000/svg" viewBox="0 0 100.87 130.5"><defs><style>.cls-1{fill:#3d58a6;}</style></defs><g id="Layer_2" data-name="Layer 2"><g id="pages"><path class="cls-1" d="M37.44,129.05a3.84,3.84,0,0,0,3,1.45H88.65a3.85,3.85,0,0,0,3.57-2.4c.08-.19,1-2.64,1.36-3.62,1-2.79,2-5.83,2.94-9A121.41,121.41,0,0,0,100,100.65c1.63-10.2,1.17-18.36-2.24-24-3.54-5.82-9.88-10-18.14-13A78,78,0,0,0,66.17,60.3c-1.59-.27-2.58-.38-2.58-.38v-35A11.54,11.54,0,0,0,52,13.43H50.1A11.55,11.55,0,0,0,38.54,25V85.59L25.71,74.4C17.46,67.22,6,69.13.56,78.58A3.89,3.89,0,0,0,.82,83ZM9.87,79.37c3.15-2.39,7.3-2.21,10.76.81L39.85,96.93A3.85,3.85,0,0,0,46.24,94V25a3.86,3.86,0,0,1,3.86-3.84H52a3.85,3.85,0,0,1,3.85,3.82v38.4a3.85,3.85,0,0,0,3.58,3.83c.23,0,.73.06,1.43.14,1.2.14,2.55.33,4,.57A70.2,70.2,0,0,1,77,70.94c6.77,2.43,11.71,5.7,14.17,9.74,2.21,3.62,2.58,10.21,1.21,18.77a110.78,110.78,0,0,1-3.22,13.86c-.89,3-1.84,5.93-2.8,8.59a7.28,7.28,0,0,0-.31.93H42.39L8.68,80.5A9.94,9.94,0,0,1,9.87,79.37Z"/><path class="cls-1" d="M76.56,20.66a26,26,0,1,0-37.91,28,3.87,3.87,0,0,0,5.23-1.54,3.82,3.82,0,0,0-1.54-5.2A18.31,18.31,0,1,1,60,41.84a3.83,3.83,0,0,0-1.48,5.22,3.87,3.87,0,0,0,5.25,1.48A25.91,25.91,0,0,0,77,28.34H88.3v3.84c0,1,.7,1.41,1.57.79l10.34-7.35a1.28,1.28,0,0,0,0-2.24L89.87,16c-.89-.63-1.57-.26-1.57.79v3.85Z"/></g></g></svg>