<svg xmlns="http://www.w3.org/2000/svg" viewBox="0 0 58.54 22"><defs><style>.cls-1{fill:#f1f1f2;stroke:#808184;stroke-miterlimit:10;}.cls-2{fill:#da4536;}.cls-3{fill:#404041;}</style></defs><g id="Layer_2" data-name="Layer 2"><g id="Layer_1-2" data-name="Layer 1"><g id="Layer_2-2" data-name="Layer 2"><g id="pages"><path class="cls-1" d="M58,19.42a2,2,0,0,1-1.91,2.08H2.41A2,2,0,0,1,.5,19.42V2.58A2,2,0,0,1,2.41.5H56.13A2,2,0,0,1,58,2.58Z"/><polygon class="cls-2" points="24.75 8.77 23.04 8.77 23.04 10.48 21.32 10.48 21.32 12.21 23.04 12.21 23.04 13.93 24.75 13.93 24.75 12.21 26.46 12.21 26.46 10.48 24.75 10.48 24.75 8.77"/><path class="cls-2" d="M13,10.49V12.9H16.4A3.2,3.2,0,0,1,13,15.41a3.78,3.78,0,0,1,0-7.55,3.26,3.26,0,0,1,2.4.91L17.2,7A6.24,6.24,0,1,0,13,17.87a5.75,5.75,0,0,0,6-5.49,5.42,5.42,0,0,0,0-.57,11.41,11.41,0,0,0-.08-1.32Z"/><path class="cls-3" d="M30.68,13l1.39-.21a.89.89,0,0,0,.35.61,1.27,1.27,0,0,0,.76.21,1.45,1.45,0,0,0,.81-.19.49.49,0,0,0,.18-.37.38.38,0,0,0-.1-.26,1,1,0,0,0-.46-.18,7.41,7.41,0,0,1-2.12-.68,1.33,1.33,0,0,1-.62-1.17,1.39,1.39,0,0,1,.54-1.14,2.45,2.45,0,0,1,1.66-.44,2.78,2.78,0,0,1,1.59.35,1.74,1.74,0,0,1,.72,1l-1.3.24a.87.87,0,0,0-.32-.47,1.15,1.15,0,0,0-.67-.16,1.5,1.5,0,0,0-.78.15.32.32,0,0,0-.16.28.3.3,0,0,0,.14.25,5.66,5.66,0,0,0,1.29.39,3.8,3.8,0,0,1,1.54.61,1.29,1.29,0,0,1,.43,1A1.59,1.59,0,0,1,35,14a2.68,2.68,0,0,1-1.77.52,3,3,0,0,1-1.69-.39A2,2,0,0,1,30.68,13Z"/><path class="cls-3" d="M38.14,7.24V9.89a2,2,0,0,1,1.6-.76,2,2,0,0,1,.86.17,1.4,1.4,0,0,1,.57.46,1.63,1.63,0,0,1,.27.6,6.63,6.63,0,0,1,.07,1v3.06H40.13V11.69a4.56,4.56,0,0,0-.08-1,.7.7,0,0,0-.28-.35.91.91,0,0,0-.5-.13,1,1,0,0,0-.61.17.9.9,0,0,0-.4.5,2.81,2.81,0,0,0-.12,1v2.61H36.76V7.24Z"/><path class="cls-3" d="M43.94,10.82l-1.25-.23a1.9,1.9,0,0,1,.73-1.12,2.53,2.53,0,0,1,1.52-.34,3.09,3.09,0,0,1,1.37.22A1.31,1.31,0,0,1,47,9.9a3,3,0,0,1,.19,1.23v1.6a4.81,4.81,0,0,0,.07,1,2.33,2.33,0,0,0,.24.7H46.09A2.16,2.16,0,0,1,46,14c0-.08,0-.13-.05-.16a3,3,0,0,1-.76.52,2.35,2.35,0,0,1-.86.17A1.81,1.81,0,0,1,43,14.11a1.42,1.42,0,0,1-.46-1.1,1.36,1.36,0,0,1,.21-.79,1.26,1.26,0,0,1,.59-.53,4.21,4.21,0,0,1,1.1-.32A9.07,9.07,0,0,0,45.8,11v-.14a.78.78,0,0,0-.2-.57,1.16,1.16,0,0,0-.74-.17.81.81,0,0,0-.57.15A.94.94,0,0,0,43.94,10.82Zm1.85,1.12c-.28.07-.57.14-.85.19a1.94,1.94,0,0,0-.75.24.57.57,0,0,0-.27.49.67.67,0,0,0,.21.5.77.77,0,0,0,.55.21,1.25,1.25,0,0,0,.72-.25.91.91,0,0,0,.32-.45,2.65,2.65,0,0,0,.06-.68Z"/><path class="cls-3" d="M49.83,14.44H48.45V9.22h1.28V10a2.34,2.34,0,0,1,.59-.7,1,1,0,0,1,.62-.14,1.58,1.58,0,0,1,.91.26l-.43,1.2a1.19,1.19,0,0,0-.65-.23.72.72,0,0,0-.49.16,1,1,0,0,0-.34.61,7.85,7.85,0,0,0-.11,1.75Z"/><path class="cls-3" d="M55.44,12.78l1.38.23a2.42,2.42,0,0,1-.88,1.12,2.59,2.59,0,0,1-1.43.39,2.39,2.39,0,0,1-2-.89,3,3,0,0,1-.51-1.8,2.81,2.81,0,0,1,.68-2,2.16,2.16,0,0,1,1.73-.7,2.29,2.29,0,0,1,1.84.77,3.41,3.41,0,0,1,.69,2.33H53.48a1.42,1.42,0,0,0,.34,1,1,1,0,0,0,.79.34.93.93,0,0,0,.55-.18A1.18,1.18,0,0,0,55.44,12.78Zm.08-1.39a1.34,1.34,0,0,0-.31-.91.9.9,0,0,0-.71-.32.94.94,0,0,0-.75.33,1.23,1.23,0,0,0-.29.9Z"/></g></g></g></g></svg>