<svg xmlns="http://www.w3.org/2000/svg" viewBox="0 0 98.36 30"><defs><style>.cls-1{fill:#e6e6e6;}</style></defs><g id="Layer_2" data-name="Layer 2"><g id="pages"><path class="cls-1" d="M7.28,24.32a1.38,1.38,0,0,1-.51-.21L1.08,18.59C.8,18.33.61,18.14.49,18a1.9,1.9,0,0,1-.33-.49A1.41,1.41,0,0,1,0,16.85v-.79a1.42,1.42,0,0,1,.17-.67,2,2,0,0,1,.31-.47c.1-.1.3-.3.62-.59L6.77,8.66a.78.78,0,0,1,.49-.16.66.66,0,0,1,.48.2.73.73,0,0,1,.18.5v.9a1.14,1.14,0,0,1,0,.27,1.12,1.12,0,0,1,0,.21.6.6,0,0,1-.09.21.68.68,0,0,0-.1.17.72.72,0,0,1-.15.18,1.55,1.55,0,0,1-.14.14l-.2.18-.2.18L2.6,16.17a.34.34,0,0,0,0,.59L7,21.13l.2.17.19.17.15.15.15.16.11.17a.6.6,0,0,1,.08.19,1.12,1.12,0,0,1,0,.21,1.14,1.14,0,0,1,0,.27v1a.67.67,0,0,1-.18.47A.6.6,0,0,1,7.28,24.32Z"/><path class="cls-1" d="M12.8,30q-.18,0-.18-.42a.18.18,0,0,1,0-.06.25.25,0,0,0,0-.08L17.22.57c.06-.38.18-.57.35-.57h2.68c.13,0,.2.14.2.41a.63.63,0,0,1,0,.16l-4.6,28.86c-.07.38-.17.57-.31.57Z"/><path class="cls-1" d="M24.79,26.66a.5.5,0,0,1-.39-.13,1.06,1.06,0,0,1-.12-.63V4.14a1,1,0,0,1,.12-.62.5.5,0,0,1,.39-.14h2.84a.5.5,0,0,1,.39.14,1.16,1.16,0,0,1,.11.62v8.62a.59.59,0,0,0,.07.26c.05.07.09.11.13.11H34.2s.08,0,.14-.12a.5.5,0,0,0,.07-.27V4.14a1,1,0,0,1,.13-.61.48.48,0,0,1,.38-.15H37.8a.47.47,0,0,1,.37.14,1,1,0,0,1,.12.62V25.9a1.06,1.06,0,0,1-.12.63.46.46,0,0,1-.37.13H34.92a.64.64,0,0,1-.27,0c-.07,0-.13-.1-.18-.21a1.36,1.36,0,0,1-.08-.51V16c0-.22-.07-.34-.21-.34H28.37c-.13,0-.2.12-.2.34V25.9a1.07,1.07,0,0,1-.12.62.49.49,0,0,1-.39.14Z"/><path class="cls-1" d="M45.62,26.66a.46.46,0,0,1-.36-.15,1.07,1.07,0,0,1-.13-.62V6.4c0-.27-.07-.41-.21-.41H41.51l-.28,0a.3.3,0,0,1-.16-.17A1.1,1.1,0,0,1,41,5.38V4.1a1,1,0,0,1,.11-.58.5.5,0,0,1,.39-.14H52.57a.47.47,0,0,1,.37.14.94.94,0,0,1,.12.58V5.38a.79.79,0,0,1-.11.51.54.54,0,0,1-.38.1H49.22c-.14,0-.21.14-.21.41V25.89a1.09,1.09,0,0,1-.13.63.47.47,0,0,1-.38.14Z"/><path class="cls-1" d="M55.87,26.66c-.31,0-.47-.26-.47-.79v-.08l.88-21.48c0-.6.18-.9.49-.93h3.09a.85.85,0,0,1,.49.17,1,1,0,0,1,.3.59L64,19.46a.26.26,0,0,0,.07.1.09.09,0,0,0,.1,0,.12.12,0,0,0,0-.1L67.49,4.19c.12-.51.38-.78.77-.81h3.13c.31,0,.47.33.47.93l.92,21.48v.1c0,.52-.17.77-.49.77H70.13c-.31,0-.48-.29-.5-.87L69,9.16c0-.06,0-.1-.06-.11s-.06,0-.08,0L65.32,25.89c-.1.52-.32.77-.66.77H63.39c-.32,0-.54-.25-.67-.77L59.26,9.18c0-.06,0-.08-.08,0a.2.2,0,0,0,0,.09l-.63,16.55q0,.87-.45.87Z"/><path class="cls-1" d="M77.43,26.66a.46.46,0,0,1-.37-.13,1.06,1.06,0,0,1-.12-.63V4.14a1,1,0,0,1,.12-.62.47.47,0,0,1,.37-.14h2.88a.47.47,0,0,1,.37.14,1,1,0,0,1,.12.62V23.73q0,.36.27.36h5.09a.54.54,0,0,1,.37.11.78.78,0,0,1,.11.52V26a.78.78,0,0,1-.11.52.5.5,0,0,1-.37.12Z"/><path class="cls-1" d="M91.09,24.32a.57.57,0,0,1-.47-.21.71.71,0,0,1-.18-.5v-.9a1.48,1.48,0,0,1,0-.21c0-.07,0-.14,0-.19a.7.7,0,0,1,.06-.17,1.07,1.07,0,0,1,.07-.15l.09-.14.1-.13.12-.14a1.53,1.53,0,0,1,.13-.13l.15-.14.16-.15,4.4-4.52a.39.39,0,0,0,.16-.3.34.34,0,0,0-.18-.28l-4.36-4.37-.23-.2a1.4,1.4,0,0,1-.21-.2l-.17-.17a.49.49,0,0,1-.14-.18l-.09-.2a.73.73,0,0,1-.08-.25,2.33,2.33,0,0,1,0-.29v-1a.64.64,0,0,1,.18-.47.58.58,0,0,1,.47-.19.9.9,0,0,1,.48.19l5.7,5.54.6.58a2.12,2.12,0,0,1,.33.47,1.41,1.41,0,0,1,.16.67v.79a1.77,1.77,0,0,1,0,.24.42.42,0,0,1-.06.21,1.3,1.3,0,0,0-.06.19.93.93,0,0,1-.12.19.52.52,0,0,0-.12.16.64.64,0,0,1-.16.18l-.16.17a2.27,2.27,0,0,1-.21.2c-.11.11-.19.17-.21.19l-5.66,5.67A.93.93,0,0,1,91.09,24.32Z"/></g></g></svg>