<svg xmlns="http://www.w3.org/2000/svg" viewBox="0 0 69.17 20.76"><defs><style>.cls-1{fill:#5fa8dc;}.cls-2{fill:#fff;}</style></defs><g id="Layer_2" data-name="Layer 2"><g id="Layer_1-2" data-name="Layer 1"><g id="Layer_2-2" data-name="Layer 2"><g id="pages"><path class="cls-1" d="M69.16,19.75a1,1,0,0,1-1,1H1.08A1,1,0,0,1,0,19.84V1A1,1,0,0,1,1,0H68.08a1,1,0,0,1,1.09.91V19.75Z"/><path class="cls-2" d="M18.12,7.5a2.67,2.67,0,0,1-1.3.3,2.4,2.4,0,0,0,1-1.09,5.32,5.32,0,0,1-1.4.5,2.22,2.22,0,0,0-1.51-.59,2.08,2.08,0,0,0-2.15,2,.79.79,0,0,0,.11.5A7,7,0,0,1,8.45,6.94a1.48,1.48,0,0,0-.22,1,1.86,1.86,0,0,0,1,1.59,1.62,1.62,0,0,1-1-.3h0a2,2,0,0,0,1.62,1.88l-.55.11H8.88a2.13,2.13,0,0,0,1.94,1.39,4.32,4.32,0,0,1-2.6.8H7.68a6.94,6.94,0,0,0,3.24.89,5.79,5.79,0,0,0,6-5.56V8.5A2.6,2.6,0,0,0,18.12,7.5Z"/><path class="cls-2" d="M29.45,5.32V6.74H26.39v7.9H24.5V6.74H21.43V5.32Z"/><path class="cls-2" d="M28.57,8H30a.73.73,0,0,1,.33.08.52.52,0,0,1,.18.21l1,3.53a2.79,2.79,0,0,0,.14.57c0,.19.07.37.1.54.05-.18.1-.35.16-.54s.13-.37.19-.57l1.2-3.54a.41.41,0,0,1,.16-.21.52.52,0,0,1,.3-.08h.77a.72.72,0,0,1,.32.08.43.43,0,0,1,.17.21l1.16,3.54c.07.2.12.4.18.58s.1.37.15.56l.11-.56c0-.19.1-.39.16-.58l1.05-3.53A.52.52,0,0,1,38,8.11a.61.61,0,0,1,.3-.08h1.33l-2.34,6.61H35.87a.32.32,0,0,1-.33-.27l-1.2-3.87a4.73,4.73,0,0,1-.21-.76,4.85,4.85,0,0,1-.21.77l-1.31,3.82a.34.34,0,0,1-.38.27H30.9Z"/><path class="cls-2" d="M43.5,7.92a4.15,4.15,0,0,1,1.26.2,3.12,3.12,0,0,1,1,.58,2.71,2.71,0,0,1,.64.94,3.49,3.49,0,0,1,.24,1.27.83.83,0,0,1-.09.49.34.34,0,0,1-.32.13H41.77a2.36,2.36,0,0,0,.2.88,1.8,1.8,0,0,0,.4.61,1.42,1.42,0,0,0,.6.36,2,2,0,0,0,.77.12,3,3,0,0,0,.73-.09,2.62,2.62,0,0,0,.53-.2l.41-.2a.9.9,0,0,1,.32-.09.35.35,0,0,1,.33.15l.51.58a2.48,2.48,0,0,1-.65.52,4.12,4.12,0,0,1-.74.34,4.28,4.28,0,0,1-.79.17,5.24,5.24,0,0,1-.79.05,4.15,4.15,0,0,1-1.39-.24,3.17,3.17,0,0,1-1.13-.67,3.25,3.25,0,0,1-.75-1.11,4,4,0,0,1-.28-1.53,3.49,3.49,0,0,1,.24-1.27A3.45,3.45,0,0,1,41,8.86a3.32,3.32,0,0,1,1.08-.69A4.51,4.51,0,0,1,43.5,7.92Zm0,1.15a1.7,1.7,0,0,0-1.16.43,1.78,1.78,0,0,0-.54,1.11h3.26a1.55,1.55,0,0,0-.39-1.06,1.39,1.39,0,0,0-.48-.32,1.64,1.64,0,0,0-.66-.16Z"/><path class="cls-2" d="M51,7.92a4.15,4.15,0,0,1,1.26.2,3.12,3.12,0,0,1,1,.58,2.71,2.71,0,0,1,.64.94,3.49,3.49,0,0,1,.24,1.27.83.83,0,0,1-.09.49.36.36,0,0,1-.33.13H49.26a2.58,2.58,0,0,0,.21.88,1.8,1.8,0,0,0,.4.61,1.42,1.42,0,0,0,.6.36,2,2,0,0,0,.77.12,3,3,0,0,0,.73-.09,2.62,2.62,0,0,0,.53-.2l.41-.2a.9.9,0,0,1,.32-.09.35.35,0,0,1,.33.15l.51.58a2.48,2.48,0,0,1-.65.52,4.12,4.12,0,0,1-.74.34,4.28,4.28,0,0,1-.79.17,5.24,5.24,0,0,1-.79.05,4.15,4.15,0,0,1-1.39-.24,3.17,3.17,0,0,1-1.13-.67,3.25,3.25,0,0,1-.75-1.11,4,4,0,0,1-.28-1.53,3.49,3.49,0,0,1,.24-1.27,3.45,3.45,0,0,1,.68-1.05,3.32,3.32,0,0,1,1.08-.69A4.4,4.4,0,0,1,51,7.92Zm0,1.15a1.7,1.7,0,0,0-1.18.4,1.78,1.78,0,0,0-.54,1.11h3.26a1.69,1.69,0,0,0-.1-.58,1.31,1.31,0,0,0-.77-.8A1.69,1.69,0,0,0,51,9.07Z"/><path class="cls-2" d="M57.73,14.75a1.89,1.89,0,0,1-1.43-.49,1.75,1.75,0,0,1-.51-1.34V9.22h-.74a.31.31,0,0,1-.24-.08.32.32,0,0,1-.1-.25V8.25l1.16-.17.37-1.81a.34.34,0,0,1,.13-.2A.48.48,0,0,1,56.63,6h.89V8.09h1.93V9.22H57.52v3.59a.66.66,0,0,0,.16.49.6.6,0,0,0,.46.17.57.57,0,0,0,.26,0l.19-.07.14-.07H59a.35.35,0,0,1,.1.11l.52.77a2.39,2.39,0,0,1-.87.44A2.82,2.82,0,0,1,57.73,14.75Z"/></g></g></g></g></svg>